<?xml version="1.0" encoding="utf-8" ?><svg xmlns="http://www.w3.org/2000/svg" xmlns:xlink="http://www.w3.org/1999/xlink" width="1024" height="1024" viewBox="0 0 1024 1024"><path fill="#ED1212" d="M641.455 349.737C679.016 350.599 719.51 349.927 757.212 349.869L788.74 349.854C796.194 349.872 804.914 349.519 812.037 350.676C875.17 360.927 915.928 412.802 887.381 475.536C866.648 521.1 831.341 544.521 783.399 555.464C778.152 556.661 772.491 556.469 767.628 558.514C778.855 567.115 790.7 574.308 802.249 582.505L903.397 653.816C913.462 660.942 923.995 667.521 933.973 674.726C935.106 675.545 934.864 675.134 935.014 676.34C932.402 677.895 915.336 677.079 911.017 677.127C887.553 677.386 864.089 677.526 840.624 677.547C810.203 677.586 775.84 678.367 745.636 677.435C739.463 673.595 731.871 664.258 726.75 658.71C721.453 652.983 716.098 647.309 710.687 641.69C684.797 614.755 659.087 587.647 633.559 560.369L630.712 557.736C624.43 557.511 618.143 557.423 611.857 557.472C607.457 562.967 597.983 580.494 594.047 587.41L560.525 645.654C555.39 654.638 550.356 663.914 545.228 672.888C543.389 675.552 542.481 676.849 539.125 677.184C533.28 677.768 527.235 677.549 521.36 677.544L486.945 677.45L449.235 677.317C444.517 677.326 428.055 678.295 425.048 676.038C424.736 673.75 433.966 658.729 435.779 655.528L455.643 619.722L497.444 545.806C508.564 525.68 519.825 505.632 531.226 485.663C532.142 484.08 534.143 480.562 535.588 479.556C536.411 478.984 539.693 478.653 540.872 478.656C557.066 478.693 573.386 478.738 589.572 478.708L691.911 478.562C706.147 478.584 746.31 480.57 757.156 475.556C762.822 472.936 767.28 468.374 769.276 462.394C770.669 458.223 770.35 453.852 768.209 449.993C765.409 444.949 760.684 442.521 755.174 441.445C747.893 440.023 739.95 440.535 732.546 440.536L701.729 440.541L584.764 440.505C580.877 440.496 561.153 441.896 560.048 439.75C561.326 435.828 572.712 423.844 576.029 419.96L594.95 397.462L621.372 366.113C625.949 360.749 630.427 355.122 635.277 350.033L641.455 349.737Z"/><path fill="#ED1212" d="M593.358 348.734C595.605 348.844 595.366 348.468 596.778 349.604L596.768 350.895C595.733 353.028 580.944 368.507 578.038 371.78L540.002 414.812C533.47 422.229 523.894 433.682 517.012 440.197C508.586 441.167 489.412 440.511 479.939 440.495L389.314 440.49C377.918 440.478 353.696 439.691 343.441 440.891C338.244 447.244 325.102 470.397 322.836 478.313C325.502 478.797 335.18 478.64 338.196 478.638L366.05 478.638L447.352 478.697C461.167 478.716 475.076 478.899 488.895 478.824C490.447 478.816 492.264 479.062 493.359 480.241C493.098 481.068 493.243 480.926 492.743 481.506C489.454 485.322 484.68 488.596 480.884 491.956C470.863 500.825 460.792 509.661 450.914 518.687C443.013 525.906 415.079 553.246 408.094 556.413C401.422 559.438 299.015 556.873 282.131 557.497C278.759 561.794 268.583 580.09 265.331 585.757C254.712 604.175 244.192 622.649 233.77 641.179C227.44 652.218 221.441 665.774 213.606 675.461C211.234 678.393 191.047 677.323 186.217 677.336C171.151 677.487 156.084 677.545 141.018 677.51L111.349 677.551C106.455 677.573 97.8471 677.905 93.4227 677.341L93.0346 676.318C93.3629 673.193 101.569 660.054 103.786 656.08L123.965 619.345L201.105 481.057C213.148 459.7 224.57 437.832 236.967 416.666C242.911 406.518 249.838 393.2 257.111 384.219C270.573 367.594 289.203 357.149 309.882 352.329C323.081 349.252 334.409 349.942 347.835 349.94L381.001 349.941L525.512 349.644L564.695 349.526C574.008 349.509 584.194 349.743 593.358 348.734Z"/></svg>