<?xml version="1.0" encoding="utf-8" ?><svg xmlns="http://www.w3.org/2000/svg" xmlns:xlink="http://www.w3.org/1999/xlink" width="1024" height="1024" viewBox="0 0 1024 1024"><path fill="#ED1212" d="M708.174 545.473C704.267 543.242 692.888 530.999 688.989 527.096C678.217 516.222 667.314 505.479 656.282 494.87C653.794 492.509 640.367 480.286 639.989 478.267C641.739 476.205 649.815 477.692 652.622 477.646C717.384 476.59 783.338 478.626 847.954 477.483C845.074 485.251 841.468 492.93 838.456 500.779L797.8 607.155C786.871 636.248 775.437 665.215 764.695 694.392C763.085 698.765 761.293 703.361 759.306 707.565C735.722 708.078 710.399 707.599 686.672 707.57L550.795 707.574C531.123 707.609 511.206 707.391 491.55 708.169C488.477 708.291 485.818 708.879 482.738 708.225L482.214 707.707C483.372 704.876 490.261 699.823 492.903 697.338L536.157 656.791L559.534 634.915C564.483 630.195 575.317 619.094 580.595 616.137C616.467 615.409 652.839 616.598 688.744 616.286C689.501 616.279 691.423 616.242 691.812 615.515C697.849 605.807 702.432 586.704 707.812 577.157C725.671 567.472 749.447 561.352 768.153 553.086C773.868 550.561 780.114 549.107 785.855 546.27C787.712 545.526 789.023 545.035 790.978 544.568L793.488 543.924C794.292 542.094 793.04 542.367 791.522 542.477C790.014 542.44 788.506 542.394 786.998 542.339C786.354 542.48 785.712 542.631 785.072 542.79C763.023 545.069 741.049 544.123 718.93 545.209C715.433 545.381 711.663 545.506 708.174 545.473Z"/><path fill="#260000" d="M786.998 542.339C790.633 541.813 794.183 542.032 797.873 541.939L797.116 543.152C795.905 543.394 794.681 543.706 793.488 543.924C794.292 542.094 793.04 542.367 791.522 542.477C790.014 542.44 788.506 542.394 786.998 542.339Z"/><path fill="#540202" d="M797.873 541.939C798.217 541.986 798.918 541.972 799.191 542.263C799.194 542.628 797.348 543.082 797.116 543.152L797.873 541.939Z"/><path fill="#ED1212" d="M413.849 389.731C408.252 386.48 398.078 375.369 392.853 370.324L350.312 329.224C347.711 326.665 338.18 319.263 337.845 316.494C339.403 315.423 379.527 316.136 385.44 316.126L515.337 316.187C520.675 316.189 557.326 315.644 560.422 316.988C560.45 320.076 533.578 386.796 529.567 396.864L454.208 590.299L433.669 643.069C427.773 658.176 424.203 665.984 419.721 681.709C414.55 678.388 403.454 667.768 397.904 663.125L362.753 634.083C357.062 629.424 347.401 622.318 342.919 616.855C362.084 568.721 379.791 519.167 398.439 470.776L412.643 433.715C414.151 429.868 417.758 420.095 419.56 416.807C427.908 411.606 476.755 393.783 487.856 391.026C488.155 390.606 488.682 389.721 488.968 389.262L488.634 388.739C481.176 387.267 474.02 388.413 466.478 388.506C460.966 388.573 455.472 388.409 449.967 388.133C437.829 388.353 425.275 389.575 413.849 389.731Z"/><path fill="#030000" d="M449.967 388.133C462.133 387.867 474.298 387.55 486.465 387.308C492.449 387.188 498.392 386.535 504.474 386.49C498.956 388.08 493.417 389.592 487.856 391.026C488.155 390.606 488.682 389.721 488.968 389.262L488.634 388.739C481.176 387.267 474.02 388.413 466.478 388.506C460.966 388.573 455.472 388.409 449.967 388.133Z"/><path fill="#ED1212" d="M574.607 345.911C579.65 349.514 587.789 357.149 593.375 361.629L645.424 403.371C646.005 403.905 646.673 404.299 647.227 404.867C648.971 406.244 651.39 407.743 652.352 409.533L601.691 538.463L581.748 589.952C579.832 594.763 575.21 609.412 571.497 611.778C564.964 615.941 556.864 619.987 549.941 623.747L506.123 647.551L463.99 671.155C459.322 673.787 452.929 678.149 448.505 680.233L447.85 679.944C447.357 676.939 452.07 666.782 453.347 663.361L467.542 625.759L496.259 550.094C513.371 503.71 530.978 457.51 549.077 411.502C557.51 389.753 565.519 367.407 574.607 345.911Z"/><path fill="#ED1212" d="M657.91 398.35C648.057 382.061 637.991 365.902 627.712 349.878C624.801 345.348 607.735 319.832 607.523 316.398C611.056 315.453 634.58 316.112 639.98 316.123L731.694 316.282L866.156 316.199L908.128 316.273C914.033 316.281 922.018 315.853 927.589 316.259C923.633 322.399 919.738 323.149 914.393 327.517C884.409 352.022 854.158 376.218 824.449 401.063C818.416 406.109 809.904 404.539 802.385 404.642C758.435 405.245 713.675 403.171 669.788 404.564C661.355 404.219 663.897 406.652 659.449 401.019C658.997 400.133 658.524 399.115 657.91 398.35Z"/><path fill="#ED1212" d="M206.283 616.158C220.758 615.252 243.41 616.064 258.502 616.04L298.764 615.934C304.4 615.919 319.828 615.477 324.7 616.769C327.991 619.617 334.067 629.404 336.736 633.433L354.317 659.982C363.555 673.755 378.367 693.98 386.2 707.707C375.172 708.099 361.647 707.654 350.397 707.642L276.782 707.553L140.84 707.565C136.196 707.578 98.9838 708.235 97.5466 707.695L97.7648 706.454C99.5978 704.333 105.359 699.718 107.686 697.78L130.068 679.413L181.586 636.06C186.172 632.194 202.186 618.145 206.283 616.158Z"/><path fill="#030000" fill-opacity="0.21176471" d="M645.424 403.371C646.732 401.464 648.192 392.222 650.787 397.585C652.94 402.036 655.403 403.418 657.91 398.35C658.524 399.115 658.997 400.133 659.449 401.019C659.387 401.573 659.329 403.173 659.172 403.671C658.395 404.315 654.135 404.564 652.986 403.533C651.833 402.498 648.301 404.495 647.227 404.867C646.673 404.299 646.005 403.905 645.424 403.371Z"/><path fill="#030000" fill-opacity="0.40784314" d="M659.449 401.019C663.897 406.652 661.355 404.219 669.788 404.564C667.583 405.115 663.063 405.541 660.75 405.455L659.745 405.426C656.194 405.27 654.099 406.038 652.352 409.533C651.39 407.743 648.971 406.244 647.227 404.867C648.301 404.495 651.833 402.498 652.986 403.533C654.135 404.564 658.395 404.315 659.172 403.671C659.329 403.173 659.387 401.573 659.449 401.019Z"/><path fill="#030000" fill-opacity="0.2" d="M786.998 542.339C788.506 542.394 790.014 542.44 791.522 542.477L790.978 544.568C789.023 545.035 787.712 545.526 785.855 546.27C786.098 545.765 787.202 543.851 787.252 543.412C786.987 543.078 785.399 542.856 785.072 542.79C785.712 542.631 786.354 542.48 786.998 542.339Z"/><path fill="#030000" fill-opacity="0.36470589" d="M791.522 542.477C793.04 542.367 794.292 542.094 793.488 543.924L790.978 544.568L791.522 542.477Z"/></svg>