<?xml version="1.0" encoding="utf-8" ?><svg xmlns="http://www.w3.org/2000/svg" xmlns:xlink="http://www.w3.org/1999/xlink" width="1024" height="1024" viewBox="0 0 1024 1024"><path fill="#ED1212" d="M788.827 275.197C798.678 274.614 809.296 276.506 818.46 280.114C833.22 285.925 843.596 298.479 854.66 309.246C870.788 324.998 886.782 340.886 902.64 356.909L946.45 400.599C953.962 408.11 964.594 418.182 971.356 426.047C975.339 430.669 978.555 435.902 980.878 441.544C987.535 457.314 987.096 475.716 980.549 491.461C974.017 507.446 961.858 520.486 946.368 528.116C937.283 532.487 922.436 534.392 912.234 536.057L880 541.239L784.363 556.205C774.95 557.701 765.146 558.595 755.805 560.296C750.441 561.274 743.021 567.832 738.325 571.304C727.154 579.506 716.096 587.862 705.154 596.368L625.336 656.375C616.352 663.266 603.466 674.109 593.879 679.685C591.728 680.937 578.668 682.331 575.516 682.729C568.868 683.602 562.226 684.524 555.591 685.495L460.492 699.32L251.691 730.414C223.627 734.791 195.531 738.959 167.404 742.915C153.976 744.896 136.078 748.376 122.933 749.285C110.763 750.062 98.5883 747.837 87.4795 742.806C67.5653 733.697 52.0032 717.162 44.1189 696.732C35.7628 674.527 38.0318 653.574 47.6495 632.354C51.1885 624.701 55.8069 617.595 61.3637 611.254C72.7078 598.227 82.2179 593.471 96.0542 584.004C107.85 575.933 119.297 568.896 131.355 561.282L225.578 502.851C235.625 496.639 247.077 490.311 256.698 483.794C260.514 481.209 269.822 470.445 273.176 466.695C280.695 458.213 288.265 449.776 295.886 441.386L378.794 350.893C388.262 340.463 397.789 330.086 407.373 319.762C417.255 309.067 432.646 291.597 444.383 284.4C453.06 279.165 462.879 276.116 472.996 275.515C530.749 271.796 564.739 330.439 535.981 379.69C533.443 384.036 528.22 388.818 524.836 392.699C509.339 410.473 493.723 428.162 478.298 446C469.978 456.075 460.381 465.378 453.123 476.256C450.219 480.608 449.877 484.609 451.137 489.713C454.474 503.229 470.38 509.056 481.443 500.687C485.42 497.678 489.268 494.436 493.192 491.322L524.826 466.105L688.236 337.566L732.19 303.06C752.964 286.889 761.622 277.249 788.827 275.197ZM705.823 539.046C713.533 533.416 723.91 524.774 732.025 519.865C734.816 518.177 747.18 516.722 750.993 516.145L779.774 511.709C815.06 505.655 850.388 499.852 885.757 494.3C892.624 493.185 899.615 492.131 906.426 490.891C912.774 489.734 920.479 488.929 926.313 486.297C939.425 480.382 944.552 465.017 935.028 453.54C927.075 443.956 918.198 435.966 909.49 427.296C895.349 412.988 881.137 398.751 866.853 384.586L830.037 347.833C822.978 340.713 816.114 333.599 808.758 326.667C801.885 320.19 791.597 316.288 782.798 321.674C775.82 325.945 768.674 332.029 762.147 337.121C749.537 347.045 736.857 356.88 724.109 366.626C668.015 409.504 612.388 452.991 557.238 497.076C542.571 508.646 508.365 538.944 492.967 544.179C467.593 553.065 439.368 545.296 422.116 524.675C405.883 505.306 402.167 474.839 415.489 453.182C421.353 443.648 432.486 431.838 440.019 423.128L481.741 375.162C487.794 368.331 497.396 359.277 500.957 351.098C507.863 335.238 493.936 317.203 476.741 319.105C472.354 320.035 467.828 321.192 464.407 324.252C454.793 332.854 445.51 343.717 436.775 353.227C420.227 371.245 403.014 389.091 386.779 407.308L314.78 486.549C311.711 489.933 290.941 513.646 288.412 515.199C275.586 523.075 261.366 532.049 248.478 540.27L156.432 598.908L118.091 623.31C107.604 630.039 98.5247 633.858 91.5293 644.565C79.4927 662.986 81.6349 686.628 101.142 698.832C115.902 708.065 133.446 702.542 149.565 700.06L197.08 693.014L367.468 667.195L507.627 646.739C521.229 644.787 534.844 642.923 548.47 641.146C556.579 640.066 571.529 639.11 578.547 635.11C582.441 632.891 588.911 627.531 592.643 624.717L617.291 606.118C646.695 583.888 676.208 560.947 705.823 539.046Z"/></svg>