<?xml version="1.0" encoding="utf-8" ?><svg xmlns="http://www.w3.org/2000/svg" xmlns:xlink="http://www.w3.org/1999/xlink" width="1024" height="1024" viewBox="0 0 1024 1024"><path fill="#FE0401" d="M387.787 413.462C394.023 413.135 492.825 444.423 505.634 448.14L719.244 511.297L784.054 530.801C792.491 533.3 812.007 538.365 819.07 541.465C811.322 544.264 793.929 546.815 784.762 548.567L708.271 563.238C702.624 564.319 667.466 570.455 665.461 572.452C666.625 577.547 715.416 634.427 721.926 644.796C722.037 644.972 722.143 645.151 722.251 645.328L653.978 656.169C643.906 657.867 626.085 661.655 616.606 662.098C619.043 667.545 622.408 671.042 625.965 675.768C629.949 681.167 633.895 686.594 637.802 692.049L671.567 738.216C680.589 750.715 686.395 759.989 696.247 772.403C691.105 771.362 684.285 768.569 678.98 767.077C670.606 764.722 662.218 762.397 653.882 759.917C529.817 725.854 405.945 691.091 282.272 655.63C273.985 668.207 265.788 684.691 258.316 698.21L217.645 771.592C212.595 769.636 197.014 762.254 191.876 759.492C193.99 754.973 197.833 748.61 200.303 743.905L226.729 694.646C259.821 632.886 294.332 571.896 330.235 511.727L368.666 445.689C373.927 436.65 382.001 421.533 387.787 413.462ZM496.685 582.734C515.263 587.261 532.48 593.647 550.674 599.184L566.407 571.279C569.522 565.798 575.53 555.97 577.428 550.585C571.766 547.828 530.443 535.878 523.292 535.056C516.591 545.952 510.413 556.964 504.364 568.232C502.171 572.317 498.155 578.647 496.685 582.734ZM415.849 614.033C421.019 615.871 466.714 630.842 469.07 629.69C476.908 617.635 483.373 604.033 490.972 591.769C492.54 589.238 494.411 585.988 495.648 583.315C486.524 580.88 478.66 578.303 469.781 575.392C462.605 573.04 449.001 567.879 442.085 567.57C437.772 572.981 418.312 607.533 415.849 614.033ZM441.76 564.501C445.895 558.5 449.101 551.273 452.764 544.867C457.764 536.124 463.114 527.313 467.862 518.442C467.682 517.86 467.521 517.352 467.318 516.774C451.125 511.503 432.298 505.168 415.957 500.824C413.402 504.281 410.062 509.935 408.229 513.878C403.179 524.74 394.285 536.645 390 547.504C394.894 549.304 399.927 550.913 404.919 552.429C417.254 556.176 429.425 560.812 441.76 564.501ZM525.518 647.695C530.332 649.794 535.762 651.508 540.824 652.988C552.698 656.458 564.553 660.428 576.46 663.744C577.804 663.603 578.645 663.507 579.975 663.231C583.345 654.364 590.235 642.97 594.965 634.528C597.527 629.954 601.957 621.695 604.747 617.487C587.045 612.97 569.35 606.525 551.432 601.568C543.142 614.69 536.086 628.441 528.503 641.97C527.477 643.8 526.362 645.779 525.518 647.695ZM470.573 514.892C471.059 515.525 471.244 515.724 471.799 516.294C487.32 520.991 508.276 528.679 523.019 532.278C527.752 523.36 534.018 513.857 538.878 504.835C541.382 500.186 544.311 496.234 546.502 491.238C544.234 490.269 541.448 489.437 539.023 488.904C523.288 485.445 507.592 478.241 491.871 475.131C488.908 479.644 484.567 488.131 481.844 493.17C478.375 499.587 473.325 508.345 470.573 514.892ZM349.04 535.932C344.532 543.08 339.476 552.454 335.219 559.928C331.799 565.933 324.729 577.354 322.166 583.227C327.023 585.491 336.051 587.819 341.711 589.56C348.402 591.619 355.76 594.571 362.264 596.496L363.569 596.445C366.252 593.064 385.82 554.229 387.647 549.223C379.674 546.307 371.685 543.432 363.682 540.601C359.884 539.248 352.813 536.471 349.04 535.932ZM619.923 719.049C616.77 711.764 603.987 696.593 598.706 688.831C594.691 682.93 587.68 672.291 583.464 666.99C580.846 666.333 580.647 667.702 578.566 669.522C576.126 673.406 561.734 698.191 560.693 701.386L561.214 702.318C565.938 704.814 613.828 718.287 619.923 719.049ZM523.969 648.411C512.312 644.403 500.574 640.635 488.763 637.109C484.147 635.752 474.894 632.977 470.155 632.264C464.374 643.699 453.772 660.544 449.122 671.396C453.327 673.379 500.305 686.834 502.849 686.359C507.927 675.296 517.533 658.886 523.969 648.411ZM415.803 497.496C419.712 492.533 425.373 480.885 428.64 474.804C431.306 469.842 435.239 463.065 437.618 458.189C430.952 455.928 408.495 448.719 402.22 447.459L401.634 447.336C398.679 452.166 380.4 482.378 380.412 485.636C383.295 488.097 411.324 496.893 415.803 497.496ZM668.8 624.258C667.533 621.638 632.471 574.248 630.157 572.522C625.875 579.042 620.943 588.796 617.023 595.762C613.797 601.496 607.831 611.738 605.633 617.466C614.022 620.631 636.713 628.217 644.85 627.957C651.475 626.935 663.488 626.15 668.8 624.258ZM363.702 598.832C359.406 606.47 355.373 615.607 351.422 623.558C349.155 628.122 344.48 636.637 342.889 640.953C345.513 642.581 391.738 656.114 393.585 655.69C397.449 648.718 401.053 641.108 404.926 634.004C407.516 629.255 413.125 619.316 414.842 614.645L383.105 604.287C377.451 602.467 369.363 599.458 363.702 598.832ZM602.182 508.57C595.091 519.896 589.32 532.162 582.35 543.583C581.083 545.657 580.094 547.4 579.301 549.709C583.576 551.657 589.201 552.64 593.858 554.177C605.737 558.095 618.576 561.513 630.244 565.913C636.873 554.929 642.547 542.943 649.137 531.884C650.621 529.395 652.284 526.659 653.482 524.052C644.796 520.639 632.713 517.606 623.575 514.694C618.769 513.163 606.544 509.294 602.182 508.57Z"/><path fill="#020100" d="M579.975 663.231C581.374 664.317 582.532 665.464 583.464 666.99C580.846 666.333 580.647 667.702 578.566 669.522C580.477 665.097 581.825 664.987 576.46 663.744C577.804 663.603 578.645 663.507 579.975 663.231Z"/><path fill="#ED1212" d="M467.318 516.774C469.168 516.104 469.122 515.507 470.573 514.892C471.059 515.525 471.244 515.724 471.799 516.294C468.715 516.892 470.221 516.587 467.862 518.442C467.682 517.86 467.521 517.352 467.318 516.774Z"/><path fill="#FE0401" d="M384.197 221.229C390.67 222.084 399.836 221.948 406.517 221.965L438.395 221.994L543 221.973L608.788 222.02C613.151 222.026 633.099 222.417 636.284 221.935C637.502 220.186 637.576 201.457 638.506 197.37C654.411 127.401 745.237 130.025 758.98 199.762C760.464 207.29 759.44 214.242 759.954 221.586C769.444 222.329 783.095 221.962 792.856 221.966L849.401 221.973C855.16 221.973 874.886 221.604 879.182 222.294C879.789 225.779 875.075 249.513 874.398 254.57C868.884 295.773 861.596 336.774 856.314 377.993C855.632 383.315 854.245 389.276 853.889 394.495C852.486 396.812 837.127 395.761 833.343 396.037L187.253 396.079C182.627 395.863 170.608 396.153 165.509 395.751C164.966 395.708 164.746 392.358 164.57 391.375C163.759 383.891 162.312 375.892 161.192 368.377L154.213 322.31C149.059 288.934 144.357 255.491 140.108 221.988L223.743 221.987L247.274 222.054C251.918 222.104 258.332 222.37 262.814 221.94C263.477 203.716 261.851 191.138 272.714 174.682C306.229 123.905 378.1 145.256 383.879 204.038C384.421 209.549 383.813 215.632 384.197 221.229ZM759.757 252.237C759.667 260.887 760.232 270.179 758.396 278.592C740.055 362.596 630.884 341.787 636.889 258.337C637.009 256.671 637.036 253.87 636.986 252.161C581.169 251.324 523.346 252.042 467.437 252.058L411.447 252.084C405.39 252.089 389.449 251.753 383.984 252.451C384.081 276.322 384.167 295.946 365.486 314.567C354.051 326.185 338.382 332.653 322.082 332.483C306.288 332.408 291.089 325.791 280.278 314.35C262.29 295.314 262.643 276.495 263.077 252.18C234.926 251.584 203.993 251.998 175.72 252.197C174.964 252.905 174.729 252.817 174.814 253.657C175.714 262.521 177.412 272.797 178.769 281.506C181.551 298.849 184.138 316.224 186.53 333.626C188.067 344.246 189.898 353.798 190.543 364.583C197.427 365.16 206.172 364.983 213.19 365.002L254.587 364.855L370.01 364.834L668.024 365.311C704.864 365.007 741.532 364.22 778.418 365.165C794.204 365.57 812.681 364.738 828.089 366.075C829.272 359.593 829.778 353.331 830.735 346.862C834.815 319.267 838.885 291.68 842.893 264.075C843.472 260.088 844.231 256.044 844.548 252.033L800.75 252.097C788.628 252.101 771.463 251.573 759.757 252.237ZM699.387 302.466C708.73 301.916 714.74 299.676 721.145 292.394C733.871 277.928 729.235 251.766 729.67 233.681C730.093 216.126 732.102 194.096 717.599 182.21C711.713 177.346 704.964 175.528 697.394 175.711C662.489 179.462 666.413 217.879 666.608 243.424C666.751 262.186 663.366 283.27 680.054 296.184C686.019 300.8 691.9 302.417 699.387 302.466ZM330.539 301.974C338.795 299.728 345.056 294.663 349.278 287.25C351.724 283.017 353.291 278.333 353.884 273.479C354.94 265.111 354.149 251.184 354.083 242.154C353.983 228.262 355.322 213.063 352.68 199.548C348.019 182.678 334.432 174.485 317.206 176.167C304.856 179.699 294.727 188.38 293.394 202.299C292.126 215.531 293.404 229.295 293.091 242.593C293.712 258.081 289.558 277.276 298.517 290.685C305.924 301.772 318.357 303.609 330.539 301.974Z"/><path fill="#FE0401" d="M854.217 399.237C854.986 405.343 855.062 412.903 855.255 419.193L856.172 456.282L860.167 568.624L866.327 726.279C867.546 754.569 869.748 784.334 870.01 812.454C818.594 811.308 764.79 812.135 713.224 812.106L634.465 812.05C623.248 812.042 598.205 811.412 586.094 812.865C584.363 813.073 572.421 823.144 569.778 825.26L533.905 853.732C527.899 858.517 517.454 867.334 511.24 871.077C505.602 867.067 499.221 861.364 493.619 856.892C481.579 847.373 469.597 837.781 457.673 828.118C454.594 825.6 439.762 812.915 438.431 812.792C424.488 811.504 390.824 812.081 377.765 812.09L276.901 812.087L201.511 812.054C184.264 812.048 167.007 811.744 149.795 812.663C149.343 792.205 151.251 773.391 151.978 753.397L157.479 620.612L163.848 438.465C164.281 425.904 164.015 412.238 164.599 399.932C166.596 400.215 168.178 402.093 170.364 403.452C176.155 408.886 188.25 417.964 192.738 423.199C194.999 425.837 192.575 457.008 192.456 462.081C192.067 478.721 190.928 495.262 190.347 511.714L183.557 699.252L181.452 751.114C181.116 758.336 179.75 774.298 180.586 780.764C190.28 783.07 208.915 781.458 219.512 781.65C272.684 782.616 325.955 781.893 379.138 781.937C388.528 781.945 442.927 780.657 448.383 782.95C454.632 785.577 465.938 796.75 471.478 801.543C477.513 806.763 483.781 811.71 489.806 816.944C496.623 822.867 503.23 829.134 510.244 834.816C516.613 830.232 522.268 824.724 528.457 819.935C542.133 809.354 555.588 798.509 568.988 787.578C575.199 782.512 576.395 781.901 584.366 781.881C597.438 781.849 610.51 781.854 623.58 781.866L768.307 781.935L814.441 781.974C820.778 781.979 832.18 782.347 838.155 781.834C838.285 764.67 837.573 747.779 836.55 730.659C836.064 722.518 836.152 714.099 835.759 705.943C835.479 700.124 834.805 694.274 834.566 688.407L829.692 537.04C829.078 519.634 827.777 502.242 827.791 484.767C827.795 479.214 826.665 473.172 826.612 467.567C826.199 452.865 825.795 438.109 825.934 423.403C829.189 418.936 841.883 408.658 846.608 404.425C849.208 402.888 851.501 400.877 854.217 399.237Z"/><path fill="#020100" fill-opacity="0.98823529" d="M164.57 391.375C164.746 392.358 164.966 395.708 165.509 395.751C170.608 396.153 182.627 395.863 187.253 396.079C185.098 396.336 180.336 396.148 178.752 396.554C170.652 398.626 165.923 394.53 170.364 403.452C168.178 402.093 166.596 400.215 164.599 399.932C165.137 396.094 164.498 395.412 164.57 391.375Z"/><path fill="#020100" fill-opacity="0.97254902" d="M833.343 396.037C837.127 395.761 852.486 396.812 853.889 394.495C854.075 396.162 854.093 397.593 854.217 399.237C851.501 400.877 849.208 402.888 846.608 404.425L846.879 403.946C847.598 402.645 851.312 398.403 851.326 398.355C852.054 395.932 835.567 396.377 833.343 396.037Z"/></svg>