<?xml version="1.0" encoding="utf-8" ?><svg xmlns="http://www.w3.org/2000/svg" xmlns:xlink="http://www.w3.org/1999/xlink" width="1024" height="1024" viewBox="0 0 1024 1024"><path fill="#ED1212" d="M908.846 376.68L910.004 376.582L910.338 377.205C909.953 379.874 908.91 381.354 907.988 383.745C900.84 402.29 895.055 421.554 887.762 440.042C885.718 444.993 882.917 449.478 877.03 449.919C856.067 451.491 834.477 453.349 813.512 454.073C810.234 460.103 806.373 468.864 803.515 475.257C811.065 478.211 839.41 485.945 842.363 492.668C848.496 506.625 852.37 524.47 856.93 539.167C861.135 552.721 856.56 558.117 850.905 569.92C845.983 580.155 841.001 590.36 835.959 600.536C832.045 608.551 828.75 617.259 824.133 624.865C822.681 627.259 821.19 629.852 818.613 631.148C811.048 634.951 776.68 633.173 766.438 633.04C761.566 632.976 756.248 632.478 751.464 633.436C746.551 634.421 742.21 637.924 737.846 640.262C733.415 642.641 728.69 644.425 723.792 645.569C702.52 650.523 686.248 644.791 668.299 633.515C653.119 632.551 628.951 633.467 613.06 633.46L495.488 633.295L390.852 633.25L359.132 633.157C339.258 633.087 345.891 632.108 328.846 640.761C324.663 642.879 320.248 644.503 315.689 645.6C293.718 650.697 278.039 644.862 259.902 633.537C225.772 632.561 191.413 634.027 157.243 633.32C144.182 633.049 130.405 632.653 117.378 633.186C115.238 633.417 111.887 633.385 109.65 633.432C113.235 628.141 120.571 619.486 124.804 614.119C132.584 604.171 140.262 594.143 147.837 584.038C138.629 577.099 126.305 569.47 116.524 562.872C125.55 557.63 135.147 551.235 144.158 545.693L220.789 498.21C231.119 491.836 243.902 483.512 254.702 477.894C256.266 477.08 268.756 477.571 271.49 477.639L317.3 478.688C345.816 479.272 337.18 480.496 361.003 466.159L430.322 423.595C435.045 420.745 446.448 412.273 451.488 411.795C463.429 410.663 476.502 411.503 488.614 411.467C506.69 411.251 524.767 411.145 542.843 411.148C551.364 411.147 562.274 410.862 570.626 411.696C575.907 412.223 585.951 415.497 591.399 417.12L620.242 425.649C659.965 437.215 700.871 449.752 740.781 460.31C747.504 448.134 755.707 435.767 762.785 423.715C767.173 416.243 771.823 408.212 776.609 401.019C778.496 398.514 779.761 396.793 783.001 395.982C795.094 392.954 808.361 391.793 820.679 389.937C850.045 385.371 879.435 380.951 908.846 376.68ZM797.067 416.881C794.48 419.722 790.126 426.619 787.811 430.085C779.809 442.067 772.413 454.68 764.709 466.846C761.49 471.929 755.831 481.963 751.293 485.32C746.275 486.825 714.288 477.023 707.545 475.217L602.773 447.188C591.245 444.196 579.613 440.777 568.121 437.826C563.632 436.674 552.697 437.073 547.419 437.107L521.874 437.197L483.55 437.257C475.966 437.206 468.391 437.057 460.803 437.07C454.51 437.08 450.405 440.46 445.362 443.646C442.301 445.58 439.246 447.518 436.171 449.433C418.652 460.307 401.262 471.385 384.002 482.665C381.026 484.119 374.419 488.295 371.363 490.127C370.518 490.583 369.69 490.997 368.992 491.666C367.792 492.294 367.206 492.63 366.057 493.398C360.474 496.433 353.365 501.943 347.773 504.234C339.289 502.175 329.837 502.555 321.106 502.53L287.868 502.523C280.752 502.492 269.029 501.816 262.362 502.555C260 502.817 247.853 511.292 244.925 513.083L189.739 546.296C181.01 551.598 169.31 558.296 161.226 564.244C167.046 567.947 176.02 574.901 181.934 579.095C173.539 588.83 166.571 597.484 158.442 607.518C166.564 608.333 181.929 607.784 190.53 607.727C206.631 607.621 223.473 608.085 239.495 607.742C229.091 583.593 231.024 551.645 249.551 531.812C304.402 473.098 394.748 530.735 362.461 607.67C395.835 607.788 429.21 607.733 462.584 607.504L647.28 607.432C639.758 589.64 637.897 572.811 644.141 554.137C649.945 536.725 662.405 522.319 678.799 514.068C694.423 506.379 714.681 505.874 731.054 511.52C748.668 517.776 763.041 530.829 770.961 547.76C781.218 569.187 778.523 586.571 770.95 607.71C782.28 608.059 794.597 607.914 806.003 607.985C812.064 595.564 818.044 583.103 823.941 570.603C827.177 563.797 831.331 555.693 834.036 548.839C830.991 536.991 825.454 520.968 821.686 508.898C806.264 504.385 785.235 496.651 769.951 491.37C773.474 482.229 791.901 439.409 797.138 434C798.897 432.183 801.222 431.648 803.647 431.231C811.18 429.936 819.383 430.208 827.036 429.806C840.043 429.121 853.015 428.151 866.034 427.627C868.558 420.645 871.21 413.711 873.989 406.827C848.642 409.081 822.278 413.617 797.067 416.881ZM640.932 483.753L592.839 553.076C585.651 563.573 575.951 579.27 568.509 588.908C553.812 589.955 538.791 590.245 524.021 591.097C490.222 593.245 456.405 595.09 422.573 596.633C418.471 597.165 413.202 597.475 409.056 597.567C406.71 597.373 404.657 597.45 402.362 597.226C405.488 596.398 416.132 593.867 418.946 593.796C422.464 592.329 440.723 589.499 445.55 588.573C465.548 584.654 485.525 580.63 505.48 576.502C514.702 574.657 530.434 572.298 538.676 569.624C553.17 552.594 566.75 536.05 580.833 518.674C585.369 513.077 597.143 498.704 602.157 493.943C595.276 493.805 586.309 494.856 579.284 495.49L539.941 499.192L484.611 503.909C478.491 504.473 471.839 504.908 465.801 505.704C440.561 509.028 415.655 506.156 390.317 505.785C383.261 505.682 372.611 506.058 365.789 505.352L365.728 504.685C365.428 502.179 365.566 501.584 365.684 499.061L366.571 499.197C370.158 499.777 372.045 498.713 375.732 497.644C374.081 496.502 372.584 495.526 371.081 494.187C371.811 490.886 373.689 492.299 377.156 491.692C380.322 490.197 382.754 488.988 386.013 487.785C389.202 486.608 388.942 485.419 392.354 487.034C393.591 486.133 394.587 485.568 395.796 484.589L432.431 460.459C440.05 455.352 448.426 449.287 456.592 444.978C457.898 444.288 461.333 444.195 462.976 444.182C492.851 443.937 522.699 444.482 552.58 444.358C557.013 444.339 563.485 444.116 568.06 444.831C579.399 449.422 590.601 456.638 601.59 462.215C612.851 468.721 630.357 476.998 640.932 483.753ZM714.182 621.229C738.517 618.38 755.94 596.351 753.107 572.015C750.275 547.679 728.258 530.241 703.919 533.057C679.558 535.877 662.101 557.919 664.936 582.278C667.771 606.637 689.825 624.08 714.182 621.229ZM297.736 533.269C273.324 535.183 255.139 556.61 257.221 581.008C259.303 605.407 280.855 623.443 305.239 621.193C329.385 618.964 347.208 597.667 345.147 573.505C343.085 549.344 321.911 531.374 297.736 533.269Z"/><path fill="#ED1212" d="M395.796 484.589L432.431 460.459C440.05 455.352 448.426 449.287 456.592 444.978C457.898 444.288 461.333 444.195 462.976 444.182C492.851 443.937 522.699 444.482 552.58 444.358C557.013 444.339 563.485 444.116 568.06 444.831C579.399 449.422 590.601 456.638 601.59 462.215C612.851 468.721 630.357 476.998 640.932 483.753L592.839 553.076C585.651 563.573 575.951 579.27 568.509 588.908C553.812 589.955 538.791 590.245 524.021 591.097C490.222 593.245 456.405 595.09 422.573 596.633L421.911 596.589C421.083 596.54 416.549 596.469 416.381 595.605C416.572 595.174 418.178 594.496 418.946 593.796C422.464 592.329 440.723 589.499 445.55 588.573C465.548 584.654 485.525 580.63 505.48 576.502C514.702 574.657 530.434 572.298 538.676 569.624C553.17 552.594 566.75 536.05 580.833 518.674C585.369 513.077 597.143 498.704 602.157 493.943C595.276 493.805 586.309 494.856 579.284 495.49L539.941 499.192L484.611 503.909C478.491 504.473 471.839 504.908 465.801 505.704C440.561 509.028 415.655 506.156 390.317 505.785C383.261 505.682 372.611 506.058 365.789 505.352L365.728 504.685C365.428 502.179 365.566 501.584 365.684 499.061L366.571 499.197C370.158 499.777 372.045 498.713 375.732 497.644C374.081 496.502 372.584 495.526 371.081 494.187C371.811 490.886 373.689 492.299 377.156 491.692C380.322 490.197 382.754 488.988 386.013 487.785C389.202 486.608 388.942 485.419 392.354 487.034C393.591 486.133 394.587 485.568 395.796 484.589Z"/><path fill="#FEFEFE" d="M377.156 491.692C380.322 490.197 382.754 488.988 386.013 487.785C389.202 486.608 388.942 485.419 392.354 487.034C385.778 491.693 372.556 501.061 365.728 504.685C365.428 502.179 365.566 501.584 365.684 499.061L366.571 499.197C370.158 499.777 372.045 498.713 375.732 497.644C374.081 496.502 372.584 495.526 371.081 494.187C371.811 490.886 373.689 492.299 377.156 491.692Z"/><path fill="#FEFEFE" fill-opacity="0.37254903" d="M371.363 490.127C374.419 488.295 381.026 484.119 384.002 482.665C390.372 485.929 389.475 483.122 395.796 484.589C394.587 485.568 393.591 486.133 392.354 487.034C388.942 485.419 389.202 486.608 386.013 487.785C382.754 488.988 380.322 490.197 377.156 491.692C373.928 491.567 373.559 492.352 371.363 490.127Z"/><path fill="#FEFEFE" fill-opacity="0.078431375" d="M368.992 491.666C369.848 493.121 370.152 492.963 371.081 494.187C372.584 495.526 374.081 496.502 375.732 497.644C372.045 498.713 370.158 499.777 366.571 499.197L365.684 499.061C367.085 495.396 368.508 497.413 366.057 493.398C367.206 492.63 367.792 492.294 368.992 491.666Z"/><path fill="#FB3C2A" d="M402.362 597.226C405.488 596.398 416.132 593.867 418.946 593.796C418.178 594.496 416.572 595.174 416.381 595.605C416.549 596.469 421.083 596.54 421.911 596.589L422.573 596.633C418.471 597.165 413.202 597.475 409.056 597.567C406.71 597.373 404.657 597.45 402.362 597.226Z"/><path fill="#FEFEFE" fill-opacity="0.45490196" d="M368.992 491.666C369.69 490.997 370.518 490.583 371.363 490.127C373.559 492.352 373.928 491.567 377.156 491.692C373.689 492.299 371.811 490.886 371.081 494.187C370.152 492.963 369.848 493.121 368.992 491.666Z"/><path fill="#FE5D5A" fill-opacity="0.66274512" d="M409.056 597.567C408.457 597.649 400.44 598.761 401.856 597.295L401.975 597.54L401.991 597.251C402.114 597.243 402.238 597.234 402.362 597.226C404.657 597.45 406.71 597.373 409.056 597.567Z"/></svg>