<?xml version="1.0" encoding="utf-8" ?><svg xmlns="http://www.w3.org/2000/svg" xmlns:xlink="http://www.w3.org/1999/xlink" width="1024" height="1024" viewBox="0 0 1024 1024"><path fill="#ED1212" d="M366.471 144.203C375.927 143.162 390.366 143.835 400.204 143.82L464.501 143.865L511.065 143.832C519.771 143.817 529.107 143.511 537.703 144.267C542.47 144.686 544.032 145.252 547.527 148.571C561.119 161.478 573.389 176.003 586.455 189.445L677.226 281.421L823.87 428.461L860.97 465.635C866.581 471.203 872.441 476.774 877.972 482.393C881.588 486.067 882.707 490.872 882.851 495.943C883.151 506.42 882.851 517.222 882.837 527.749L883.052 584.687L883.133 632.299C883.089 645.129 883.118 657.715 881.936 670.51C877.281 720.926 855.38 767.143 821.893 804.779C778.938 853.717 717.999 883.179 652.966 886.449C596.441 887.845 537.326 886.968 480.638 886.887L412.081 886.958C377.473 886.957 350.106 887.9 316.227 878.992C280.61 869.627 247.665 852.59 219.664 828.709C172.058 788.247 142.3 730.666 136.83 668.427C135.492 651.316 135.963 630.578 135.94 613.082L135.99 520.793L135.983 428.833C136.003 411.581 135.459 390.058 136.746 373.147C140.263 321.118 160.329 271.577 194.01 231.766C237.364 180.549 299.54 148.981 366.471 144.203ZM655.123 828.921C707.694 823.875 749.745 802.538 783.447 761.625C807.059 732.681 821.399 697.292 824.597 660.075C825.883 643.805 825.131 623.578 825.179 606.915L825.079 512.437C817.212 502.538 803.324 490.121 794.244 480.851L720.117 406.186L594.732 280.268C568.855 254.002 543.328 227.385 516.542 202.025L420.911 201.954C403.672 201.937 383.277 201.208 366.313 202.202C317.031 206.075 271.306 229.367 239.198 266.955C219.695 289.84 206.059 317.131 199.47 346.468C192.057 379.266 194 409.541 194.123 442.999L194.148 532.009L194.048 614.404C194.042 629.71 193.619 646.96 194.66 662.041C198.029 710.817 222.013 755.745 259.664 787.184C282.515 806.091 309.598 819.193 338.604 825.375C366.392 831.209 393.578 829.52 421.986 829.49L514.127 829.485L603.724 829.475C619.53 829.472 639.903 830.062 655.123 828.921Z"/><path fill="#ED1212" d="M498.569 339.859C594.532 333.451 677.486 406.128 683.752 502.101C690.018 598.074 617.219 680.92 521.237 687.044C425.456 693.156 342.82 620.541 336.567 524.769C330.314 428.996 402.806 346.254 498.569 339.859ZM514.244 629.797C578.452 627.502 628.654 573.608 626.395 509.398C624.135 445.188 570.27 394.957 506.059 397.18C441.797 399.405 391.517 453.322 393.778 517.583C396.039 581.844 449.984 632.094 514.244 629.797Z"/><path fill="#ED1212" d="M307.605 701.037C321.505 701.128 332.697 712.474 332.598 726.374C332.499 740.273 321.147 751.459 307.247 751.352C293.359 751.245 282.184 739.904 282.283 726.016C282.382 712.127 293.717 700.946 307.605 701.037Z"/><path fill="#ED1212" d="M655.661 143.695C666.338 143.271 679.808 143.806 690.727 143.82L764.601 143.755L821.982 143.555C833.065 143.481 844.26 143.259 855.35 143.575C865.309 143.124 880.209 155.778 881.951 165.652C884.139 178.047 883.295 196.65 883.271 209.602L883.009 281.747L882.913 335.722C882.93 345.843 883.187 356.023 882.848 366.143C882.326 381.717 873.286 391.311 858.543 395.39C838.833 397.572 832.485 385.712 820.121 373.112L786.959 339.701L714.104 266.104L662.367 213.747C652.969 204.146 643.036 194.963 634.455 184.628C631.086 180.572 630.337 177.973 629.935 172.741C629.338 165.277 631.891 157.904 636.977 152.408C642.147 146.769 648.161 144.139 655.661 143.695ZM824.934 295.793L824.914 202.023C815.479 201.373 804.009 201.596 794.504 201.848C773.335 202.408 751.563 201.082 730.529 201.624C734.303 206.501 741.914 213.719 746.474 218.284L775.16 247.013L804.695 277.139C808.179 280.7 820.496 293.183 824.348 295.849L824.934 295.793Z"/></svg>