<?xml version="1.0" encoding="utf-8" ?><svg xmlns="http://www.w3.org/2000/svg" xmlns:xlink="http://www.w3.org/1999/xlink" width="1024" height="1024" viewBox="0 0 1024 1024"><path fill="#ED1212" d="M404.748 276.77C421.274 276.303 438.176 276.558 454.75 276.542L545.066 276.549L595.154 276.482C610.129 276.463 628.292 275.902 642.888 278.996C666.447 283.856 688.23 295.062 705.884 311.402C731.074 335.005 745.768 367.708 746.689 402.216C747.345 421.714 746.982 443.076 746.926 462.716L746.93 541.653L746.702 596.899C746.585 613.628 747.487 629.783 743.825 646.152C738.63 669.497 727.149 690.978 710.623 708.268C686.447 733.99 654.41 746.929 619.375 747.977L466.844 747.956L425.69 748.007C410.018 748.028 393.356 748.416 377.931 744.881C357.157 740.12 335.973 728.462 320.304 714.054C294.656 690.633 279.558 657.843 278.438 623.129C277.812 606.451 278.266 587.365 278.219 570.51C278.039 537.19 278.028 503.869 278.187 470.549L278.238 426.342C278.233 410.598 277.645 394.317 281.009 378.912C286.021 355.695 297.236 334.273 313.459 316.925C337.618 291.081 369.613 277.893 404.748 276.77ZM622.352 711.386C649.44 709.315 670.898 699.838 688.938 678.795C699.293 666.772 706.292 652.23 709.227 636.637C711.746 622.833 711.035 601.746 711.031 587.171L710.987 516.098L710.819 439.999C710.787 425.72 711.209 410.897 710.304 396.737C707.774 357.148 675.405 322.129 636.798 314.468C625.115 312.15 609.599 312.927 597.505 312.968L550.581 313.004L456.291 313.106C439.347 313.112 420.258 312.64 403.581 313.234C376.666 314.486 355.439 323.432 337.072 343.398C311.85 370.816 314.42 399.889 314.378 434.006L314.414 504.707L314.409 582.649C314.405 596.682 314.266 611.23 314.649 625.224C315.324 649.916 327.327 673.213 345.976 689.544C357.775 699.847 372.103 706.824 387.49 709.758C399.723 712.12 414.717 711.673 427.406 711.707L480.293 711.639C514.77 711.779 549.247 711.733 583.723 711.502C596.06 711.418 610.296 711.826 622.352 711.386Z"/><path fill="#ED1212" d="M360.129 358.605C395.419 363.4 435.854 371.79 470.999 378.491L664.439 415.416C664.697 421.963 664.616 428.973 664.563 435.545C664.168 484.652 665.086 533.923 664.579 583.008C644.747 587.226 624.997 591.817 605.338 596.777C593.526 599.712 580.023 602.852 568.455 606.273C571.536 617.493 575.87 630.199 579.456 641.413L589.069 670.79C591.245 677.286 593.913 684.226 595.605 690.766C583.748 683.733 567.151 676.226 554.476 669.695C526.746 655.219 498.859 641.046 470.82 627.18C459.335 629.621 443.807 634.59 432.191 637.78C408.128 644.175 384.107 650.725 360.128 657.43C359.72 646.567 359.968 633.864 359.94 622.888L359.921 551.844L360.129 358.605ZM395.652 610.68C421.575 604.847 448.797 595.631 475.011 589.645C480.808 591.853 493.252 599.351 499.191 602.661C512.253 609.892 525.384 617.002 538.579 623.989C537.102 617.983 534.556 612.025 532.406 606.193C529.289 597.771 526.248 589.322 523.282 580.845C530.596 578.509 538.886 577.079 546.399 575.224L597.186 563.275C606.54 561.092 620.66 558.212 629.492 555.111C629.387 518.524 629.693 481.938 630.412 445.358C575.687 435.563 521.042 425.325 466.483 414.645C443.808 410.294 418.178 404.522 395.649 400.818C395.541 409.444 395.589 418.168 395.722 426.795C396.666 488.032 395.051 549.475 395.652 610.68Z"/></svg>