<?xml version="1.0" encoding="utf-8" ?><svg xmlns="http://www.w3.org/2000/svg" xmlns:xlink="http://www.w3.org/1999/xlink" width="1024" height="1024" viewBox="0 0 1024 1024"><path fill="#ED1212" d="M185.95 154.672C187.808 154.447 191.027 154.436 192.988 154.426L515.943 154.45L612.118 154.525C648.675 154.493 681.435 152.459 717.118 161.565C754.702 171.156 787.3 190.849 814.68 218.092C848.377 251.901 869.647 296.116 875.03 343.546C876.436 355.749 876.385 367.405 876.405 379.664L876.423 551.875L876.359 618.792C876.383 654.294 878.233 680.041 868.115 714.837C857.907 749.941 839.017 781.384 813.228 807.192C785.056 835.465 749.594 855.37 710.785 864.691C683.771 871.182 656.745 869.97 629.184 869.965L554.528 869.939L306.997 870.027L306.938 750.541C296.748 749.699 279.029 750.136 268.218 750.176C251.594 750.239 232.058 749.494 215.745 750.342L215.729 814.401C228.419 814.756 242.33 814.497 255.121 814.494C254.71 832.66 255.004 851.902 254.971 870.145C239.576 869.981 224.179 869.95 208.783 870.055C194.961 870.068 178.476 872.522 167.981 862.018C159.254 853.284 160.977 841.155 160.976 829.826L160.973 800.238L160.991 696.525L180.865 696.524L306.346 696.838C324.33 696.818 343.658 696.154 361.425 696.473C361.739 708.521 361.483 721.684 361.486 733.817L361.517 813.808C417.236 814.69 474.859 813.536 530.763 813.553L627.695 813.626C641.252 813.581 656.439 813.865 669.913 813.388C711.83 811.864 751.371 793.539 779.627 762.54C798.255 742.018 811.107 716.922 816.871 689.812C821.956 666.119 820.686 639.745 820.708 615.324L820.724 532.467L820.675 415.286C820.638 397.659 821.205 378.142 820.524 360.716C818.651 319.568 800.755 280.786 770.663 252.659C748.972 232.748 722.205 219.211 693.312 213.54C670.549 209.174 639.511 210.386 615.598 210.3L496.863 210.19L314.181 210.237L253.894 210.226C241.472 210.229 228.006 210.011 215.666 210.527C215.597 230.538 215.104 254.013 215.866 273.83C245.033 274.717 274.825 273.597 304.059 273.983C322.994 274.234 342.547 274.12 361.479 273.686L361.473 328.497L160.983 328.485L160.972 225.401L160.943 195.858C160.938 190.081 160.74 184.218 161.287 178.466C162.566 165.029 172.979 156.21 185.95 154.672Z"/><path fill="#ED1212" d="M405.298 318.822C446.24 341.814 490.441 363.833 532.158 385.669C582.593 412.167 632.785 439.126 682.726 466.544L735.413 494.756C744.819 499.795 755.123 505.056 764.191 510.462C750.589 518.921 731.925 528.109 717.647 535.704L637.83 578.709L469.839 668.571C448.837 679.731 426.162 692.819 405.108 703.352C405.788 685.327 405.246 665.156 405.195 646.924L405.119 556.381L405.298 318.822ZM460.499 612.087C501.856 590.988 542.897 569.275 583.608 546.956C604.943 535.501 629.803 523.064 650.376 511.018C642.583 506.055 633.007 501.078 624.809 496.626L581.927 473.533L521.864 441.676C501.85 431.035 480.834 419.659 460.468 409.657C459.894 420.362 460.273 433.86 460.279 444.752L460.296 506.91L460.263 575.488C460.276 587.05 459.902 600.666 460.499 612.087Z"/><path fill="#ED1212" d="M161.105 383.05C179.238 382.965 197.372 382.987 215.505 383.117C216.094 390.795 215.662 405.026 215.645 413.155L215.556 470.202L215.98 643.621L161.012 643.693L161.105 383.05Z"/></svg>